<svg width="2263" height="4374" viewBox="0 0 2263 4374" fill="none" xmlns="http://www.w3.org/2000/svg">
<g clip-path="url(#clip0_446_338)">
<rect width="2263" height="4374" transform="matrix(-1 0 0 1 2263 0)" fill="#FCEBCD"/>
<rect width="209" height="4510" transform="matrix(-1 0 0 1 1234 -64)" fill="#6BC6C0"/>
<rect width="209" height="4509.09" transform="matrix(-0.997667 0.0682743 0.061766 0.998091 1590.04 -65.0027)" fill="#F67F5D"/>
<rect width="209" height="4506.05" transform="matrix(-0.98986 0.142048 0.12869 0.991685 1947.12 -178)" fill="#FACA78"/>
<rect width="209" height="4509.09" transform="matrix(0.997667 0.0682743 -0.061766 0.998091 674.289 -64.9856)" fill="#FACA78"/>
<rect width="209" height="4506.05" transform="matrix(0.98986 0.142048 -0.12869 0.991685 317.216 -177.983)" fill="#F67F5D"/>
<rect width="91.21" height="5066" transform="matrix(-0.994468 0.105044 0.105044 0.994468 1710.54 -71.9033)" fill="#6BC6C0"/>
<rect width="91.21" height="5066" transform="matrix(-0.999501 0.0315929 0.0315929 0.999501 1353.11 -91.5442)" fill="#FACA78"/>
<rect width="91.21" height="5066" transform="matrix(-0.990479 0.137666 0.137666 0.990479 2059.27 -372.131)" fill="#F67F5D"/>
<rect x="555.384" y="-72.3591" width="91.21" height="5066" transform="rotate(6.02971 555.384 -72.3591)" fill="#69C7C2"/>
<rect x="912.816" y="-92" width="91.21" height="5066" transform="rotate(1.81044 912.816 -92)" fill="#F67F5D"/>
<rect x="251.427" y="-725.483" width="91.21" height="5066" transform="rotate(7.96734 251.427 -725.483)" fill="#FACA78"/>
</g>
<defs>
<clipPath id="clip0_446_338">
<rect width="2263" height="4374" fill="white" transform="matrix(-1 0 0 1 2263 0)"/>
</clipPath>
</defs>
</svg>
