<svg width="563" height="269" viewBox="0 0 563 269" fill="none" xmlns="http://www.w3.org/2000/svg">
<path d="M84.1318 0C88.6552 10.4923 98.7446 17.7959 110.466 17.7959C122.187 17.7959 132.276 10.4923 136.8 0H169.52C174.092 10.4923 184.291 17.7958 196.14 17.7959C207.988 17.7959 218.187 10.4922 222.76 0H254.853C259.376 10.4923 269.465 17.7959 281.187 17.7959C292.908 17.7958 302.997 10.4923 307.521 0H339.612C344.185 10.4923 354.384 17.7958 366.232 17.7959C378.081 17.7959 388.28 10.4922 392.853 0H425.545C430.019 10.4923 439.999 17.7959 451.593 17.7959C463.187 17.7959 473.166 10.4923 477.641 0H510.904C515.378 10.4923 525.358 17.7957 536.952 17.7959C548.546 17.7959 558.526 10.4923 563 0V20.5684C553.005 25.4646 546.054 36.3266 546.054 48.9395C546.054 61.552 553.005 72.4122 563 77.3086V103.801C553.005 108.647 546.054 119.398 546.054 131.882C546.054 144.366 553.005 155.115 563 159.961V187.033C553.005 191.83 546.054 202.469 546.054 214.824C546.054 227.179 553.005 237.818 563 242.614V268.212C558.526 257.72 548.546 250.416 536.952 250.416C525.126 250.416 514.978 258.016 510.642 268.848H477.903C473.566 258.016 463.419 250.416 451.593 250.416C439.766 250.416 429.619 258.016 425.282 268.848H393.122C388.69 258.016 378.319 250.416 366.232 250.416C354.146 250.416 343.776 258.016 339.344 268.848H307.786C303.402 258.016 293.143 250.416 281.187 250.416C269.23 250.416 258.97 258.016 254.586 268.848H223.029C218.597 258.016 208.226 250.416 196.14 250.416C184.053 250.416 173.683 258.016 169.251 268.848H137.065C132.681 258.016 122.422 250.416 110.466 250.416C98.5094 250.416 88.2508 258.016 83.8662 268.848H51.7061C47.3215 258.016 37.062 250.416 25.1055 250.416C14.3489 250.416 4.96735 256.568 0 265.689V242.394C9.64781 237.497 16.3192 226.994 16.3193 214.824C16.3193 202.655 9.64797 192.15 0 187.254V159.738C9.64779 154.791 16.3192 144.178 16.3193 131.882C16.3193 119.585 9.64815 108.971 0 104.023V77.083C9.64777 72.0845 16.3193 61.3624 16.3193 48.9395C16.3193 36.5163 9.64795 25.7934 0 20.7949V2.52148C4.96722 11.6436 14.3485 17.7958 25.1055 17.7959C36.8266 17.7959 46.9161 10.4922 51.4395 0H84.1318Z" fill="#D0542E"/>
</svg>
